<svg enable-background="new 0 0 36 36" height="512" viewBox="0 0 36 36" width="512" xmlns="http://www.w3.org/2000/svg"><g id="bg"><g><path d="m8.377 4.167c6.917 0 11.667-3.583 15-3.583s10.333 1.916 10.333 17.249-9.417 17.583-13.083 17.583c-17.167.001-24.5-31.249-12.25-31.249z" fill="#efefef"/></g></g><g id="color"><g><circle cx="18" cy="18" fill="#fa7d09" r="7.25"/></g><g><path d="m13 18c0-3.62 2.657-6.612 6.125-7.154-.368-.057-.741-.096-1.125-.096-4.004 0-7.25 3.246-7.25 7.25s3.246 7.25 7.25 7.25c.384 0 .757-.039 1.125-.096-3.468-.542-6.125-3.534-6.125-7.154z" fill="#fdaf65"/></g><g><path d="m29 31.5c-.827 0-1.5-.673-1.5-1.5s.673-1.5 1.5-1.5 1.5.673 1.5 1.5-.673 1.5-1.5 1.5zm0-2c-.275 0-.5.224-.5.5s.225.5.5.5.5-.224.5-.5-.225-.5-.5-.5z" fill="#a4afc1"/></g></g><g id="regular"><g><path d="m18 26c-4.411 0-8-3.589-8-8s3.589-8 8-8 8 3.589 8 8-3.589 8-8 8zm0-14.5c-3.584 0-6.5 2.916-6.5 6.5s2.916 6.5 6.5 6.5 6.5-2.916 6.5-6.5-2.916-6.5-6.5-6.5z"/></g><g><path d="m17.25 6.75h1.5v1.5h-1.5z"/></g><g><path d="m17.25 6.75h1.5v1.5h-1.5z"/></g><g><path d="m17.25 6.75h1.5v1.5h-1.5z"/></g><g><path d="m17.25 6.75h1.5v1.5h-1.5z"/></g><g><path d="m8.157 12h1.5v1.501h-1.5z" transform="matrix(.5 -.866 .866 .5 -6.588 14.092)"/></g><g><path d="m26.343 22.5h1.5v1.501h-1.5z" transform="matrix(.5 -.866 .866 .5 -6.585 35.097)"/></g><g><path d="m8.157 12h1.5v1.501h-1.5z" transform="matrix(.5 -.866 .866 .5 -6.588 14.092)"/></g><g><path d="m26.343 22.5h1.5v1.501h-1.5z" transform="matrix(.5 -.866 .866 .5 -6.585 35.097)"/></g><g><path d="m8.157 12h1.5v1.501h-1.5z" transform="matrix(.5 -.866 .866 .5 -6.588 14.092)"/></g><g><path d="m26.343 22.5h1.5v1.501h-1.5z" transform="matrix(.5 -.866 .866 .5 -6.585 35.097)"/></g><g><path d="m8.157 12h1.5v1.501h-1.5z" transform="matrix(.5 -.866 .866 .5 -6.588 14.092)"/></g><g><path d="m26.343 22.5h1.5v1.501h-1.5z" transform="matrix(.5 -.866 .866 .5 -6.585 35.097)"/></g><g><path d="m8.156 22.5h1.501v1.5h-1.501z" transform="matrix(.866 -.5 .5 .866 -10.433 7.57)"/></g><g><path d="m26.343 12h1.501v1.5h-1.501z" transform="matrix(.866 -.5 .5 .866 -2.745 15.257)"/></g><g><path d="m8.156 22.5h1.501v1.5h-1.501z" transform="matrix(.866 -.5 .5 .866 -10.433 7.57)"/></g><g><path d="m26.343 12h1.501v1.5h-1.501z" transform="matrix(.866 -.5 .5 .866 -2.745 15.257)"/></g><g><path d="m8.156 22.5h1.501v1.5h-1.501z" transform="matrix(.866 -.5 .5 .866 -10.433 7.57)"/></g><g><path d="m26.343 12h1.501v1.5h-1.501z" transform="matrix(.866 -.5 .5 .866 -2.745 15.257)"/></g><g><path d="m8.156 22.5h1.501v1.5h-1.501z" transform="matrix(.866 -.5 .5 .866 -10.433 7.57)"/></g><g><path d="m26.343 12h1.501v1.5h-1.501z" transform="matrix(.866 -.5 .5 .866 -2.745 15.257)"/></g><g><path d="m17.25 27.75h1.5v1.5h-1.5z"/></g></g></svg>