<svg enable-background="new 0 0 36 36" height="512" viewBox="0 0 36 36" width="512" xmlns="http://www.w3.org/2000/svg"><g id="bg"><g><path d="m34.904 20.355c-3.782-5.791-3.38-11.727-5.203-14.518s-7.256-7.603-20.093.782-9.572 17.5-7.566 20.569c9.388 14.372 39.561 3.423 32.862-6.833z" fill="#efefef"/></g></g><g id="color"><g><circle cx="18" cy="18" fill="#fa7d09" r="2.25"/></g><g><circle cx="9" cy="18" fill="#fa7d09" r="2.25"/></g><g><circle cx="27" cy="18" fill="#fa7d09" r="2.25"/></g><g><path d="m18 18c0-.831.455-1.548 1.125-1.938-.332-.193-.713-.312-1.125-.312-1.243 0-2.25 1.007-2.25 2.25s1.007 2.25 2.25 2.25c.412 0 .793-.119 1.125-.312-.67-.39-1.125-1.107-1.125-1.938z" fill="#fa7d09"/></g><g><path d="m9 18c0-.831.455-1.548 1.125-1.938-.332-.193-.713-.312-1.125-.312-1.243 0-2.25 1.007-2.25 2.25s1.007 2.25 2.25 2.25c.412 0 .793-.119 1.125-.312-.67-.39-1.125-1.107-1.125-1.938z" fill="#fa7d09"/></g><g><path d="m27 18c0-.831.455-1.548 1.125-1.938-.332-.193-.713-.312-1.125-.312-1.243 0-2.25 1.007-2.25 2.25s1.007 2.25 2.25 2.25c.412 0 .793-.119 1.125-.312-.67-.39-1.125-1.107-1.125-1.938z" fill="#fa7d09"/></g><g><g><path d="m4.945 3.967h1v2h-1z" fill="#a4afc1" transform="matrix(.707 -.707 .707 .707 -1.917 5.304)"/></g><g><path d="m9.012 8.033h1v2h-1z" fill="#a4afc1" transform="matrix(.707 -.707 .707 .707 -3.601 9.369)"/></g><g><path d="m4.268 8.533h2v1h-2z" fill="#a4afc1" transform="matrix(.707 -.707 .707 .707 -4.844 6.371)"/></g><g><path d="m8.334 4.467h2.001v1h-2.001z" fill="#a4afc1" transform="matrix(.707 -.707 .707 .707 -.778 8.055)"/></g></g><g><path d="m30 31.75c-.827 0-1.5-.673-1.5-1.5s.673-1.5 1.5-1.5 1.5.673 1.5 1.5-.673 1.5-1.5 1.5zm0-2c-.275 0-.5.224-.5.5s.225.5.5.5.5-.224.5-.5-.225-.5-.5-.5z" fill="#a4afc1"/></g></g><g id="regular"><g><path d="m18 21c-1.654 0-3-1.346-3-3s1.346-3 3-3 3 1.346 3 3-1.346 3-3 3zm0-4.5c-.827 0-1.5.673-1.5 1.5s.673 1.5 1.5 1.5 1.5-.673 1.5-1.5-.673-1.5-1.5-1.5z"/></g><g><path d="m9 21c-1.654 0-3-1.346-3-3s1.346-3 3-3 3 1.346 3 3-1.346 3-3 3zm0-4.5c-.827 0-1.5.673-1.5 1.5s.673 1.5 1.5 1.5 1.5-.673 1.5-1.5-.673-1.5-1.5-1.5z"/></g><g><path d="m27 21c-1.654 0-3-1.346-3-3s1.346-3 3-3 3 1.346 3 3-1.346 3-3 3zm0-4.5c-.827 0-1.5.673-1.5 1.5s.673 1.5 1.5 1.5 1.5-.673 1.5-1.5-.673-1.5-1.5-1.5z"/></g></g></svg>