<svg enable-background="new 0 0 36 36" height="512" viewBox="0 0 36 36" width="512" xmlns="http://www.w3.org/2000/svg"><g id="bg"><g><path d="m13.411 34.999c6.298-2.859 12.105-1.559 15.14-2.936 3.035-1.378 8.617-6.016 2.28-19.978s-15.841-12.12-19.18-10.605c-15.632 7.095-9.395 38.582 1.76 33.519z" fill="#efefef"/></g></g><g id="color"><g><circle cx="18" cy="18" fill="#f3f3f1" r="11.25"/></g><g><path d="m9.25 18c0-5.79 4.376-10.554 10-11.177-.411-.045-.827-.073-1.25-.073-6.213 0-11.25 5.037-11.25 11.25s5.037 11.25 11.25 11.25c.423 0 .839-.028 1.25-.073-5.624-.623-10-5.387-10-11.177z" fill="#d5dbe1"/></g><g><g><path d="m31.371 19.033h1v2h-1z" fill="#a4afc1" transform="matrix(.707 -.707 .707 .707 -4.832 28.397)"/></g><g><path d="m30.694 15.467h2v1h-2z" fill="#a4afc1" transform="matrix(.707 -.707 .707 .707 -2.007 27.088)"/></g></g><g><path d="m6 7.25c-.827 0-1.5-.673-1.5-1.5s.673-1.5 1.5-1.5 1.5.673 1.5 1.5-.673 1.5-1.5 1.5zm0-2c-.275 0-.5.224-.5.5s.225.5.5.5.5-.224.5-.5-.225-.5-.5-.5z" fill="#a4afc1"/></g></g><g id="regular"><g><path d="m25.25 19.25h-7.75c-.414 0-.75-.336-.75-.75v-7.75h1.5v7h7z"/></g><g><path d="m18 30c-6.617 0-12-5.383-12-12s5.383-12 12-12 12 5.383 12 12-5.383 12-12 12zm0-22.5c-5.79 0-10.5 4.71-10.5 10.5s4.71 10.5 10.5 10.5 10.5-4.71 10.5-10.5-4.71-10.5-10.5-10.5z"/></g></g></svg>